<svg width="90" height="38" viewBox="0 0 90 38" fill="none" xmlns="http://www.w3.org/2000/svg">
<path d="M23.1154 26.4423L22.6682 25.5478H22.6682L23.1154 26.4423ZM22.3154 26.8423L22.7626 27.7367H22.7626L22.3154 26.8423ZM19.5315 19.5314L18.8244 20.2385H18.8244L19.5315 19.5314ZM14.4688 14.4686L15.1759 13.7615L14.4688 14.4686ZM14.109 11.546L15 12L14.109 11.546ZM14.5459 11.109L14.9999 12L14.5459 11.109ZM14.1475 14.1083L13.2948 14.6308H13.2948L14.1475 14.1083ZM14.0276 13.8193L13.0553 14.0527L14.0276 13.8193ZM19.9727 20.1808L20.945 19.9473L19.9727 20.1808ZM19.8525 19.8917L20.7052 19.3692L19.8525 19.8917ZM20.8535 27.3713L20.9997 26.382L20.8535 27.3713ZM20.1805 26.9551L21 26.382V26.382L20.1805 26.9551ZM23.9453 25.708L23 25.3819L23.9453 25.708ZM23.7141 26.0817L24.4285 26.7814V26.7814L23.7141 26.0817ZM24.1475 19.8917L25.0001 20.4142L24.1475 19.8917ZM24.0276 20.1808L23.0553 19.9473V19.9473L24.0276 20.1808ZM29.9727 13.8193L30.945 14.0527L29.9727 13.8193ZM29.8525 14.1083L30.7052 14.6308H30.7052L29.8525 14.1083ZM29.8906 11.546L28.9996 12V12L29.8906 11.546ZM29.4544 11.109L29.9084 10.218L29.4544 11.109ZM29 12.6V13.3372H31V12.6H29ZM28.8244 13.7615L23.7616 18.8243L25.1759 20.2385L30.2386 15.1757L28.8244 13.7615ZM23 20.6627V25.0111H25V20.6627H23ZM22.6682 25.5478L21.8682 25.9478L22.7626 27.7367L23.5626 27.3367L22.6682 25.5478ZM21 25.4111V20.6627H19V25.4111H21ZM20.2386 18.8243L15.1759 13.7615L13.7616 15.1757L18.8244 20.2385L20.2386 18.8243ZM15 13.3372V12.6H13V13.3372H15ZM15.5996 12H28.3996V10H15.5996V12ZM15 12.6C15 12.3034 15.0008 12.1412 15.0103 12.0246C15.0189 11.9197 15.0293 11.9425 15 12L13.218 11.092C13.0797 11.3634 13.0356 11.6332 13.0169 11.8618C12.9992 12.0787 13 12.3365 13 12.6H15ZM15.5996 10C15.3361 10 15.0784 9.99922 14.8615 10.0169C14.6329 10.0356 14.3633 10.0797 14.0919 10.218L14.9999 12C14.9425 12.0293 14.9197 12.0189 15.0244 12.0103C15.1409 12.0008 15.3031 12 15.5996 12V10ZM15 12L14.9999 12L14.0919 10.218C13.7153 10.4099 13.4096 10.716 13.218 11.092L15 12ZM15.1759 13.7615C15.0832 13.6689 15.0371 13.6225 15.0051 13.5873C14.9792 13.559 14.9866 13.5637 15.0001 13.5858L13.2948 14.6308C13.4329 14.8561 13.6224 15.0365 13.7616 15.1757L15.1759 13.7615ZM13 13.3372C13 13.5342 12.9936 13.7958 13.0553 14.0527L15 13.5858C15.006 13.6109 15.0042 13.6195 15.0024 13.5811C15.0002 13.5336 15 13.4682 15 13.3372H13ZM15.0001 13.5858L15 13.5858L13.0553 14.0527C13.1044 14.2574 13.1855 14.4524 13.2948 14.6308L15.0001 13.5858ZM21 20.6627C21 20.4678 21.0068 20.2048 20.945 19.9473L19.0003 20.4142C18.9941 20.3884 18.996 20.3794 18.9977 20.4179C18.9998 20.4658 19 20.5311 19 20.6627H21ZM18.8244 20.2385C18.9168 20.3308 18.9628 20.3773 18.9946 20.4122C19.0203 20.4403 19.0131 20.4358 18.9999 20.4142L20.7052 19.3692C20.5673 19.1442 20.3788 18.9645 20.2386 18.8243L18.8244 20.2385ZM20.945 19.9473C20.8955 19.741 20.8136 19.5461 20.7052 19.3692L18.9999 20.4142L19.0003 20.4142L20.945 19.9473ZM21.8682 25.9478C21.4675 26.1482 21.228 26.2668 21.05 26.3363C20.8707 26.4064 20.8951 26.3666 20.9997 26.382L20.7074 28.3605C21.1236 28.422 21.4956 28.3094 21.7776 28.1993C22.061 28.0886 22.3967 27.9197 22.7626 27.7367L21.8682 25.9478ZM19 25.4111C19 25.8202 18.999 26.196 19.0267 26.4989C19.0543 26.8004 19.1199 27.1835 19.3611 27.5282L21 26.382C21.0606 26.4686 21.0359 26.5083 21.0184 26.3166C21.001 26.1264 21 25.8592 21 25.4111H19ZM20.9997 26.382L21 26.382L19.3611 27.5282C19.676 27.9785 20.1625 28.28 20.7074 28.3605L20.9997 26.382ZM23 25.0111C23 25.2027 22.9995 25.3012 22.9951 25.3724C22.9914 25.4319 22.9873 25.4187 23 25.3819L24.8907 26.0341C25.013 25.6794 25 25.2978 25 25.0111H23ZM23.5626 27.3367C23.8195 27.2083 24.1661 27.0493 24.4285 26.7814L22.9997 25.3819C23.0268 25.3543 23.0403 25.3521 22.9889 25.382C22.9273 25.4178 22.8394 25.4622 22.6682 25.5478L23.5626 27.3367ZM23 25.3819L22.9997 25.3819L24.4285 26.7814C24.6352 26.5703 24.7937 26.3153 24.8907 26.0341L23 25.3819ZM23.7616 18.8243C23.6224 18.9635 23.4329 19.1439 23.2948 19.3692L25.0001 20.4142C24.9866 20.4363 24.9792 20.441 25.0051 20.4127C25.0371 20.3775 25.0832 20.3311 25.1759 20.2385L23.7616 18.8243ZM25 20.6627C25 20.5317 25.0002 20.4663 25.0024 20.4189C25.0042 20.3806 25.006 20.3892 25 20.4142L23.0553 19.9473C22.9936 20.2043 23 20.4657 23 20.6627H25ZM23.2948 19.3692C23.1855 19.5477 23.1044 19.7427 23.0553 19.9473L25 20.4142L25.0001 20.4142L23.2948 19.3692ZM29 13.3372C29 13.4689 28.9998 13.5342 28.9977 13.5821C28.996 13.6207 28.9941 13.6116 29.0003 13.5858L30.945 14.0527C31.0068 13.7953 31 13.5322 31 13.3372H29ZM30.2386 15.1757C30.3788 15.0355 30.5673 14.8558 30.7052 14.6308L28.9999 13.5858C29.0131 13.5642 29.0202 13.5597 28.9946 13.5878C28.9628 13.6227 28.9168 13.6692 28.8244 13.7615L30.2386 15.1757ZM29.0003 13.5858L28.9999 13.5858L30.7052 14.6308C30.8135 14.454 30.8955 14.2592 30.945 14.0527L29.0003 13.5858ZM31 12.6C31 12.3361 31.0007 12.0783 30.9828 11.8612C30.964 11.6324 30.9197 11.363 30.7816 11.092L28.9996 12C28.9705 11.9429 28.9809 11.9205 28.9896 12.0252C28.9991 12.1415 29 12.3038 29 12.6H31ZM28.3996 12C28.6961 12 28.8586 12.0008 28.9755 12.0103C29.0809 12.0189 29.0581 12.0294 29.0004 12L29.9084 10.218C29.6367 10.0796 29.3666 10.0356 29.1381 10.0169C28.9211 9.99922 28.6632 10 28.3996 10V12ZM30.7816 11.092C30.5907 10.7174 30.2864 10.4106 29.9084 10.218L29.0004 12L28.9996 12L30.7816 11.092Z" fill="#002A48"/>
<path d="M49.728 11.8H43.04V23H45.248V18.68H49.6V16.568H45.248V13.912H49.728V11.8ZM52.2649 14.296C52.9689 14.296 53.5449 13.736 53.5449 13.064C53.5449 12.392 52.9689 11.816 52.2649 11.816C51.5769 11.816 51.0009 12.392 51.0009 13.064C51.0009 13.736 51.5769 14.296 52.2649 14.296ZM53.3049 23V15H51.2409V23H53.3049ZM57.258 23V11.32H55.194V23H57.258ZM63.7231 15H61.9151V12.76L59.8511 13.384V15H58.4591V16.984H59.8511V20.312C59.8511 22.504 60.8911 23.32 63.7231 23V21.128C62.5391 21.192 61.9151 21.176 61.9151 20.312V16.984H63.7231V15ZM73.0794 19.848C73.1274 19.544 73.1594 19.272 73.1594 19C73.1594 17.8 72.7754 16.808 72.0074 15.992C71.2554 15.176 70.2794 14.776 69.1114 14.776C67.8794 14.776 66.8554 15.176 66.0714 15.992C65.2874 16.792 64.8874 17.8 64.8874 19C64.8874 20.216 65.2874 21.224 66.0874 22.024C66.8874 22.824 67.9434 23.224 69.2714 23.224C70.8074 23.224 71.9754 22.648 72.7594 21.512L71.0954 20.552C70.6954 21.08 70.0874 21.352 69.3034 21.352C68.0714 21.352 67.3194 20.856 67.0474 19.848H73.0794ZM67.0154 18.248C67.2554 17.224 68.0074 16.632 69.1114 16.632C70.0554 16.632 70.8554 17.16 71.0954 18.248H67.0154ZM76.6643 15H74.6003V23H76.6643V19.176C76.6643 18.408 76.9043 17.864 77.4003 17.528C77.8963 17.192 78.4723 17.064 79.0963 17.144V14.84C78.0083 14.84 77.0483 15.352 76.6643 16.376V15Z" fill="#002A48"/>
</svg>
