<svg width="24" height="22" viewBox="0 0 24 22" fill="none" xmlns="http://www.w3.org/2000/svg">
<path d="M24 7.94619C24.0004 8.35262 23.9783 8.75876 23.9338 9.16274C23.4 14.211 19.531 19.52 12 21.9655C4.48139 19.5324 0.600009 14.24 0.0662161 9.16274C0.0215847 8.75877 -0.000518473 8.35262 9.2288e-06 7.94619C9.2288e-06 3.9324 2.44966 0.44826 6.00001 0.44826C7.15631 0.446019 8.29902 0.697444 9.3476 1.18481L15.2979 0.919985C16.1641 0.605943 17.0787 0.446282 18 0.44826C21.5504 0.44826 24 3.9324 24 7.94619Z" fill="#DF4D60"/>
<path d="M24 7.94619C24.0004 8.35262 23.9783 8.75876 23.9338 9.16274C22.4524 12.9696 17.669 15.7586 12 15.7586C6.33104 15.7586 1.5476 12.9696 0.0662161 9.16274C0.0215847 8.75877 -0.000518473 8.35262 9.2288e-06 7.94619C9.2288e-06 3.9324 2.44966 0.44826 6.00001 0.44826C7.15631 0.446019 8.29902 0.697444 9.3476 1.18481L15.2979 0.919985C16.1641 0.605943 17.0787 0.446282 18 0.44826C21.5504 0.44826 24 3.9324 24 7.94619Z" fill="#FF5364"/>
<path d="M21.2069 15.7834C19.4725 17.9914 17.2312 19.7487 14.6731 20.9061C14.4248 21.0261 14.1724 21.142 13.9158 21.2455C13.3075 21.5103 12.6662 21.7503 12 21.9655C11.7186 21.8744 11.4413 21.7793 11.1724 21.6799V17.4137C10.1374 16.2806 9.54917 14.8101 9.5172 13.2758C9.53983 11.8138 9.91456 10.3788 10.6096 9.09235C10.6565 8.99074 10.659 8.87423 10.6166 8.77067C10.5743 8.66711 10.4908 8.58579 10.3862 8.54615C9.18232 8.12985 7.9192 7.91048 6.64548 7.89649C4.66341 7.23442 4.52686 5.25235 4.55582 4.4827C4.56163 4.29948 4.68833 4.14236 4.86617 4.09787L7.26617 3.50201C7.66603 3.40056 8.01402 3.15431 8.24272 2.81098L9.21513 1.35442C9.25565 1.29514 9.29988 1.23847 9.34755 1.18477C9.55296 0.946131 9.82319 0.772206 10.1255 0.684079C11.2787 0.320833 12.4728 0.102602 13.68 0.0344238C14.3254 0.0697818 14.9202 0.395321 15.2979 0.919941C16.1596 2.10314 16.6088 3.53659 16.5765 4.99994C16.5765 6.05925 16.1213 6.66753 15.4965 6.95304V6.96132L15.6165 7.79304L15.7075 8.43029C15.73 8.59422 15.8494 8.72829 16.0096 8.7696C16.705 9.00647 17.3277 9.41829 17.8179 9.96546C18.5834 10.7268 20.1269 13.2137 21.2069 15.7834Z" fill="#35495E"/>
<path d="M15.6166 7.793C15.2892 7.91899 14.9411 7.98216 14.5903 7.97921C14.1383 7.9762 13.6907 7.8892 13.2703 7.72266C12.7996 7.53211 12.4906 7.07602 12.4883 6.56817V3.75852C12.4883 3.52999 12.6735 3.34473 12.9021 3.34473C13.1306 3.34473 13.3159 3.52999 13.3159 3.75852V6.56817C13.3157 6.73775 13.419 6.89026 13.5766 6.953C14.1554 7.20223 14.8087 7.2156 15.3972 6.99024C15.4289 6.97626 15.4623 6.96652 15.4966 6.96128L15.6166 7.793Z" fill="#2C3E50"/>
<path d="M18.6001 16.7185C18.5254 16.9343 18.2915 17.0503 18.0745 16.9792C17.2965 16.6752 16.4181 16.7792 15.7325 17.2565C14.9249 17.8918 14.4623 18.8692 14.4828 19.8965C14.4764 20.2425 14.5412 20.5862 14.6732 20.9061C14.4249 21.0261 14.1725 21.142 13.9159 21.2454C13.7387 20.818 13.65 20.3591 13.6552 19.8965C13.6361 18.6039 14.2263 17.3776 15.2483 16.5861C16.1511 15.9541 17.3072 15.8071 18.3394 16.193C18.5551 16.2677 18.6711 16.5016 18.6001 16.7185Z" fill="#2C3E50"/>
<path d="M6.20708 3.76685V4.99995C6.20708 5.22848 6.02182 5.41374 5.79329 5.41374H4.61398C4.56373 5.1061 4.54432 4.79421 4.55605 4.48271C4.56185 4.29948 4.68856 4.14237 4.86639 4.09788L6.20708 3.76685Z" fill="#3F5C6C"/>
</svg>
